<svg id="Layer_1" data-name="Layer 1" xmlns="http://www.w3.org/2000/svg" viewBox="0 0 117.55 122.88"><defs><style>.cls-1{fill:#050505;fill-rule:evenodd;}</style></defs><title>cleaner</title><path class="cls-1" d="M85,26.08l0,.09a140.7,140.7,0,0,0-25.28-1.69A157.92,157.92,0,0,0,30.93,27.2v0C23.46-11.53,95.9-6.16,85,26.08Zm8.88,52a3.86,3.86,0,0,1,2.71-.64l9.26,3c2,.66,3.91,1.64,3.6,4.21a21.76,21.76,0,0,1-.83,3l-.19.66c-.72,2.45-1.36,2-3.59,2.67,3.63,9.31,8.62,17.84,8.69,28.13,0,2.12-1.51,3.24-4.26,3.6l-4.8,0c1.42-5.34,1-11.28-1-17.73-.37,6.9-.69,13.63-2.49,17.32l-4.94.06c-.31-2.31-.57-4.09-1.42-5l-1.85,4-8-1.81a31.75,31.75,0,0,0,7.69-13.49c-3.51,5.16-7,8.82-10.64,10.75-1.74,1.26-3.09,1.34-4,.17-.66-.83-.46-1.23-.12-2.21a13.39,13.39,0,0,1,2.16-3.74c-2,1.54-3,1.8-4.14,2.62-3.07,2.31-7.47,1.09-7.51-2.87,0-2.55,1.75-3,3.73-4.5L75.34,104a57.1,57.1,0,0,1-10.67,3.47c-4,.75-4,.59-7.13-1.8-4.22-3.22-7.19-6.58-.44-7.09,12.59-1.81,24.36-3,35.33-11.73a3.24,3.24,0,0,1-1.26-2.51c0-1.38,1.59-5.37,2.7-6.19Zm16.41-31.55-9.15,25c-1.39,5.26,5.47,7,7.3,2l9-25.11c1-3.59-5.08-6.14-7.16-1.88ZM27.73,92.61a2.59,2.59,0,1,1-2.59,2.59,2.59,2.59,0,0,1,2.59-2.59ZM43.52,64.06c-4.33,3-8.86,4.17-13.29,5l6.31,17.89H76.48a39.39,39.39,0,0,0,6.8-3.08l4.1-14.69c-3.93-.4-7.62-.72-10.5-2.23a12.74,12.74,0,0,1-3.5-3.39l-.19-2.95A17.93,17.93,0,0,0,76,57.68c1.9-2.38,2.63-4.82,3.54-7.93.19-.65.37-1.31.59-2,1.79-.18,3.77-2.19,4.72-4.67a16.74,16.74,0,0,0,1-4.35A6.45,6.45,0,0,0,85,35a2.29,2.29,0,0,0-1.86-1.28,14.75,14.75,0,0,1,.71-3.92A138.49,138.49,0,0,0,59.7,28.3a154,154,0,0,0-28,2.65l.81,3.87a7.22,7.22,0,0,0-.94,4.35A14.84,14.84,0,0,0,33,44.06c1,1.86,2.66,3.17,4.23,3.17.15.44.33.92.48,1.39,1.27,3.76,2.22,6.61,4.52,9.31a17.21,17.21,0,0,0,2.16,2.19l-.18,3.32c-.23.21-.45.42-.69.62ZM22.91,70.4C5.43,74.38,3.84,92.93,0,107.64H19.39V90.71a3.78,3.78,0,0,1,3.77-3.77h4C27,80.39,23.74,73.5,22.91,70.4ZM50.69,15.25H66.11a.66.66,0,0,1,.66.65v3.56a.66.66,0,0,1-.66.66H50.69a.66.66,0,0,1-.66-.66V15.9a.66.66,0,0,1,.66-.65Zm20.2,46.52c-4.12,2.74-6.64,4.25-12,4.12s-7.9-1.83-12-4.45c-.31,17.31,24.43,18.34,24,.33Zm6.17-12.56c.22-.77.48-1.57.77-2.52a.82.82,0,0,1,.91-.62c1.21.21,2.83-1.54,3.67-3.66a15.73,15.73,0,0,0,1-3.9,5,5,0,0,0-.75-2.81c-.32-.61-1.22-.25-1.9-.84-3.45,9.17-33.6,13.32-45.94.69A5.45,5.45,0,0,0,34,38.87a13.75,13.75,0,0,0,1.28,4.35c.77,1.5,2.11,2.52,3.1,2.26a.82.82,0,0,1,1,.51c.29.81.48,1.43.7,2,6.39,18.77,30.69,20.24,37,1.17Z"/></svg>